<svg width="225" height="37" viewBox="0 0 225 37" fill="none" xmlns="http://www.w3.org/2000/svg">
<path d="M0.872 32.064C0.584 31.616 0.456 31.104 0.488 30.528C0.52 29.92 0.856 29.408 1.496 28.992C1.944 28.704 2.408 28.592 2.888 28.656C3.4 28.688 3.88 28.928 4.328 29.376C5.224 30.368 6.216 31.152 7.304 31.728C8.424 32.304 9.768 32.592 11.336 32.592C11.976 32.56 12.632 32.464 13.304 32.304C13.976 32.112 14.552 31.792 15.032 31.344C15.512 30.864 15.752 30.176 15.752 29.28C15.752 28.48 15.496 27.84 14.984 27.36C14.472 26.88 13.8 26.496 12.968 26.208C12.136 25.888 11.24 25.6 10.28 25.344C9.256 25.056 8.216 24.736 7.16 24.384C6.136 24.032 5.208 23.584 4.376 23.04C3.544 22.464 2.856 21.728 2.312 20.832C1.8 19.936 1.544 18.832 1.544 17.52C1.544 16.016 1.96 14.72 2.792 13.632C3.656 12.544 4.76 11.696 6.104 11.088C7.48 10.48 8.968 10.176 10.568 10.176C11.496 10.176 12.472 10.304 13.496 10.56C14.52 10.784 15.512 11.152 16.472 11.664C17.432 12.176 18.264 12.848 18.968 13.68C19.288 14.096 19.464 14.592 19.496 15.168C19.56 15.744 19.304 16.256 18.728 16.704C18.344 17.024 17.88 17.168 17.336 17.136C16.792 17.104 16.344 16.928 15.992 16.608C15.384 15.84 14.6 15.248 13.64 14.832C12.68 14.384 11.592 14.16 10.376 14.16C9.768 14.16 9.128 14.256 8.456 14.448C7.816 14.608 7.272 14.912 6.824 15.36C6.376 15.808 6.152 16.464 6.152 17.328C6.152 18.128 6.408 18.768 6.92 19.248C7.464 19.728 8.168 20.128 9.032 20.448C9.896 20.768 10.84 21.056 11.864 21.312C12.856 21.568 13.832 21.872 14.792 22.224C15.784 22.576 16.664 23.04 17.432 23.616C18.232 24.16 18.872 24.88 19.352 25.776C19.864 26.64 20.12 27.744 20.12 29.088C20.12 30.656 19.656 32 18.728 33.12C17.832 34.208 16.68 35.04 15.272 35.616C13.896 36.192 12.44 36.48 10.904 36.48C9.08 36.48 7.256 36.16 5.432 35.52C3.64 34.848 2.12 33.696 0.872 32.064ZM49.4739 23.376C49.4739 25.936 48.9139 28.208 47.7939 30.192C46.6739 32.144 45.1539 33.68 43.2339 34.8C41.3139 35.92 39.1539 36.48 36.7539 36.48C34.3539 36.48 32.1939 35.92 30.2739 34.8C28.3539 33.68 26.8179 32.144 25.6659 30.192C24.5459 28.208 23.9859 25.936 23.9859 23.376C23.9859 20.784 24.5459 18.512 25.6659 16.56C26.8179 14.576 28.3539 13.024 30.2739 11.904C32.1939 10.752 34.3539 10.176 36.7539 10.176C39.1539 10.176 41.3139 10.752 43.2339 11.904C45.1539 13.024 46.6739 14.576 47.7939 16.56C48.9139 18.512 49.4739 20.784 49.4739 23.376ZM44.6739 23.376C44.6739 21.616 44.3219 20.096 43.6179 18.816C42.9139 17.504 41.9539 16.48 40.7379 15.744C39.5539 14.976 38.2259 14.592 36.7539 14.592C35.2819 14.592 33.9379 14.976 32.7219 15.744C31.5059 16.48 30.5459 17.504 29.8419 18.816C29.1379 20.096 28.7859 21.616 28.7859 23.376C28.7859 25.072 29.1379 26.576 29.8419 27.888C30.5459 29.2 31.5059 30.224 32.7219 30.96C33.9379 31.696 35.2819 32.064 36.7539 32.064C38.2259 32.064 39.5539 31.696 40.7379 30.96C41.9539 30.224 42.9139 29.2 43.6179 27.888C44.3219 26.576 44.6739 25.072 44.6739 23.376ZM66.0909 10.176C67.8189 10.176 69.3549 10.368 70.6989 10.752C72.0429 11.104 73.0829 11.616 73.8189 12.288C74.5869 12.928 74.9709 13.68 74.9709 14.544C74.9709 15.088 74.8109 15.6 74.4909 16.08C74.1709 16.528 73.6909 16.752 73.0509 16.752C72.6029 16.752 72.2189 16.672 71.8989 16.512C71.6109 16.352 71.3389 16.16 71.0829 15.936C70.8269 15.712 70.5069 15.488 70.1229 15.264C69.7709 15.072 69.2429 14.912 68.5389 14.784C67.8669 14.656 67.2589 14.592 66.7149 14.592C65.0189 14.592 63.5469 14.976 62.2989 15.744C61.0829 16.512 60.1229 17.552 59.4189 18.864C58.7469 20.176 58.4109 21.664 58.4109 23.328C58.4109 24.992 58.7469 26.48 59.4189 27.792C60.1229 29.104 61.0669 30.144 62.2509 30.912C63.4669 31.68 64.8749 32.064 66.4749 32.064C67.4349 32.064 68.2189 32 68.8269 31.872C69.4349 31.712 69.9629 31.52 70.4109 31.296C70.8909 31.008 71.2909 30.72 71.6109 30.432C71.9629 30.112 72.4429 29.952 73.0509 29.952C73.7549 29.952 74.2829 30.176 74.6349 30.624C75.0189 31.04 75.2109 31.568 75.2109 32.208C75.2109 32.912 74.7789 33.6 73.9149 34.272C73.0829 34.912 71.9629 35.44 70.5549 35.856C69.1469 36.272 67.5949 36.48 65.8989 36.48C63.4029 36.48 61.2269 35.904 59.3709 34.752C57.5469 33.6 56.1229 32.032 55.0989 30.048C54.1069 28.064 53.6109 25.824 53.6109 23.328C53.6109 20.8 54.1389 18.56 55.1949 16.608C56.2509 14.624 57.7229 13.056 59.6109 11.904C61.4989 10.752 63.6589 10.176 66.0909 10.176ZM84.3095 33.552C84.3095 34.256 84.0855 34.848 83.6375 35.328C83.1895 35.776 82.6135 36 81.9095 36C81.2375 36 80.6615 35.776 80.1815 35.328C79.7335 34.848 79.5095 34.256 79.5095 33.552V13.008C79.5095 12.304 79.7335 11.728 80.1815 11.28C80.6615 10.8 81.2375 10.56 81.9095 10.56C82.6135 10.56 83.1895 10.8 83.6375 11.28C84.0855 11.728 84.3095 12.304 84.3095 13.008V33.552ZM81.8615 7.392C80.9335 7.392 80.2615 7.232 79.8455 6.912C79.4295 6.56 79.2215 5.984 79.2215 5.184V4.416C79.2215 3.616 79.4455 3.056 79.8935 2.736C80.3415 2.416 81.0135 2.256 81.9095 2.256C82.8695 2.256 83.5575 2.432 83.9735 2.784C84.3895 3.104 84.5975 3.648 84.5975 4.416V5.184C84.5975 6.016 84.3735 6.592 83.9255 6.912C83.5095 7.232 82.8215 7.392 81.8615 7.392ZM114.958 23.376C114.958 25.936 114.398 28.208 113.278 30.192C112.158 32.144 110.638 33.68 108.718 34.8C106.798 35.92 104.638 36.48 102.238 36.48C99.8383 36.48 97.6783 35.92 95.7583 34.8C93.8383 33.68 92.3023 32.144 91.1503 30.192C90.0303 28.208 89.4703 25.936 89.4703 23.376C89.4703 20.784 90.0303 18.512 91.1503 16.56C92.3023 14.576 93.8383 13.024 95.7583 11.904C97.6783 10.752 99.8383 10.176 102.238 10.176C104.638 10.176 106.798 10.752 108.718 11.904C110.638 13.024 112.158 14.576 113.278 16.56C114.398 18.512 114.958 20.784 114.958 23.376ZM110.158 23.376C110.158 21.616 109.806 20.096 109.102 18.816C108.398 17.504 107.438 16.48 106.222 15.744C105.038 14.976 103.71 14.592 102.238 14.592C100.766 14.592 99.4223 14.976 98.2063 15.744C96.9903 16.48 96.0303 17.504 95.3263 18.816C94.6223 20.096 94.2703 21.616 94.2703 23.376C94.2703 25.072 94.6223 26.576 95.3263 27.888C96.0303 29.2 96.9903 30.224 98.2063 30.96C99.4223 31.696 100.766 32.064 102.238 32.064C103.71 32.064 105.038 31.696 106.222 30.96C107.438 30.224 108.398 29.2 109.102 27.888C109.806 26.576 110.158 25.072 110.158 23.376ZM133.111 10.32C135.319 10.32 137.031 10.8 138.247 11.76C139.463 12.688 140.311 13.952 140.791 15.552C141.303 17.152 141.559 18.912 141.559 20.832V33.552C141.559 34.256 141.319 34.848 140.839 35.328C140.391 35.776 139.831 36 139.159 36C138.455 36 137.879 35.776 137.431 35.328C136.983 34.848 136.759 34.256 136.759 33.552V20.832C136.759 19.712 136.599 18.688 136.279 17.76C135.991 16.832 135.463 16.096 134.695 15.552C133.959 15.008 132.919 14.736 131.575 14.736C130.327 14.736 129.207 15.008 128.215 15.552C127.255 16.096 126.503 16.832 125.959 17.76C125.447 18.688 125.191 19.712 125.191 20.832V33.552C125.191 34.256 124.951 34.848 124.471 35.328C124.023 35.776 123.463 36 122.791 36C122.087 36 121.511 35.776 121.063 35.328C120.615 34.848 120.391 34.256 120.391 33.552V2.928C120.391 2.224 120.615 1.648 121.063 1.2C121.511 0.719999 122.087 0.48 122.791 0.48C123.463 0.48 124.023 0.719999 124.471 1.2C124.951 1.648 125.191 2.224 125.191 2.928V16.032L124.327 16.512C124.551 15.808 124.919 15.088 125.431 14.352C125.975 13.616 126.631 12.944 127.399 12.336C128.199 11.728 129.079 11.248 130.039 10.896C130.999 10.512 132.023 10.32 133.111 10.32ZM167.051 10.752C167.723 10.752 168.283 10.992 168.731 11.472C169.211 11.92 169.451 12.496 169.451 13.2V25.824C169.451 29.152 168.523 31.76 166.667 33.648C164.811 35.504 162.187 36.432 158.795 36.432C155.435 36.432 152.827 35.504 150.971 33.648C149.147 31.76 148.235 29.152 148.235 25.824V13.2C148.235 12.496 148.459 11.92 148.907 11.472C149.355 10.992 149.931 10.752 150.635 10.752C151.307 10.752 151.867 10.992 152.315 11.472C152.795 11.92 153.035 12.496 153.035 13.2V25.824C153.035 27.904 153.515 29.456 154.475 30.48C155.467 31.504 156.907 32.016 158.795 32.016C160.715 32.016 162.171 31.504 163.163 30.48C164.155 29.456 164.651 27.904 164.651 25.824V13.2C164.651 12.496 164.875 11.92 165.323 11.472C165.771 10.992 166.347 10.752 167.051 10.752ZM188.846 10.176C191.086 10.176 193.07 10.736 194.798 11.856C196.558 12.976 197.95 14.528 198.974 16.512C199.998 18.464 200.51 20.72 200.51 23.28C200.51 25.84 199.998 28.112 198.974 30.096C197.95 32.08 196.574 33.648 194.846 34.8C193.118 35.92 191.166 36.48 188.99 36.48C187.774 36.48 186.622 36.288 185.534 35.904C184.446 35.488 183.486 34.976 182.654 34.368C181.822 33.728 181.134 33.056 180.59 32.352C180.078 31.648 179.758 30.992 179.63 30.384L180.926 29.76V33.936C180.926 34.608 180.686 35.184 180.206 35.664C179.758 36.112 179.198 36.336 178.526 36.336C177.822 36.336 177.246 36.112 176.798 35.664C176.35 35.216 176.126 34.64 176.126 33.936V2.928C176.126 2.224 176.35 1.648 176.798 1.2C177.246 0.719999 177.822 0.48 178.526 0.48C179.198 0.48 179.758 0.719999 180.206 1.2C180.686 1.648 180.926 2.224 180.926 2.928V16.416L180.158 15.984C180.254 15.376 180.558 14.752 181.07 14.112C181.582 13.44 182.222 12.8 182.99 12.192C183.79 11.584 184.686 11.104 185.678 10.752C186.702 10.368 187.758 10.176 188.846 10.176ZM188.318 14.592C186.782 14.592 185.438 14.976 184.286 15.744C183.166 16.512 182.286 17.552 181.646 18.864C181.006 20.144 180.686 21.616 180.686 23.28C180.686 24.944 181.006 26.448 181.646 27.792C182.286 29.104 183.166 30.144 184.286 30.912C185.438 31.68 186.782 32.064 188.318 32.064C189.822 32.064 191.134 31.68 192.254 30.912C193.374 30.144 194.254 29.088 194.894 27.744C195.566 26.4 195.902 24.912 195.902 23.28C195.902 21.616 195.566 20.144 194.894 18.864C194.254 17.552 193.374 16.512 192.254 15.744C191.134 14.976 189.822 14.592 188.318 14.592ZM221.122 35.952C220.322 35.952 219.698 35.728 219.25 35.28C218.834 34.832 218.626 34.208 218.626 33.408V32.544C218.626 31.744 218.834 31.12 219.25 30.672C219.698 30.224 220.322 30 221.122 30H221.65C222.45 30 223.058 30.224 223.474 30.672C223.89 31.12 224.098 31.744 224.098 32.544V33.408C224.098 34.208 223.89 34.832 223.474 35.28C223.058 35.728 222.45 35.952 221.65 35.952H221.122Z" fill="#4991D4"/>
</svg>
